<svg width="24" height="24" viewBox="0 0 24 24" fill="none" xmlns="http://www.w3.org/2000/svg">
  <path fill-rule="evenodd" clip-rule="evenodd"
    d="M3 2.99998C3.55228 2.99998 4 3.4477 4 3.99998V6.99998H7C7.55228 6.99998 8 7.4477 8 7.99998C8 8.55227 7.55228 8.99998 7 8.99998H3C2.44772 8.99998 2 8.55227 2 7.99998V3.99998C2 3.4477 2.44772 2.99998 3 2.99998Z" />
  <path fill-rule="evenodd" clip-rule="evenodd"
    d="M10.4579 2.1278C12.3645 1.83023 14.3165 2.09064 16.0783 2.87762C17.8402 3.66459 19.3368 4.94451 20.3875 6.563C21.4382 8.1815 21.9982 10.0694 22 11.9991C22.0005 12.5514 21.5532 12.9995 21.0009 13C20.4486 13.0005 20.0005 12.5532 20 12.0009C19.9986 10.4572 19.5506 8.94683 18.71 7.65204C17.8694 6.35725 16.6722 5.33331 15.2627 4.70373C13.8532 4.07415 12.2916 3.86582 10.7664 4.10388C9.24159 4.34185 7.8182 5.01576 6.66777 6.04436L6.66668 6.04534L3.66897 8.74328C3.25846 9.11274 2.62617 9.07946 2.25671 8.66895C1.88726 8.25844 1.92053 7.62615 2.33104 7.25669L5.33334 4.55463C6.77161 3.26819 8.55137 2.42536 10.4579 2.1278Z" />
  <path fill-rule="evenodd" clip-rule="evenodd"
    d="M16 16C16 15.4477 16.4477 15 17 15H21C21.5523 15 22 15.4477 22 16V20C22 20.5523 21.5523 21 21 21C20.4477 21 20 20.5523 20 20V17H17C16.4477 17 16 16.5523 16 16Z" />
  <path fill-rule="evenodd" clip-rule="evenodd"
    d="M2.99909 11C3.55137 10.9995 3.9995 11.4468 4 11.9991C4.00141 13.5428 4.44942 15.0531 5.29 16.3479C6.13059 17.6427 7.32784 18.6667 8.73734 19.2962C10.1468 19.9258 11.7084 20.1341 13.2337 19.8961C14.7584 19.6581 16.1818 18.9842 17.3322 17.9556L17.3333 17.9546L20.331 15.2567C20.7415 14.8872 21.3738 14.9205 21.7433 15.331C22.1128 15.7415 22.0795 16.3738 21.669 16.7433L18.669 19.4433L18.6667 19.4453C17.2284 20.7318 15.4486 21.5746 13.5421 21.8722C11.6355 22.1697 9.68356 21.9093 7.92168 21.1224C6.1598 20.3354 4.66324 19.0555 3.61251 17.437C2.56178 15.8185 2.00176 13.9305 2 12.0009C1.9995 11.4486 2.4468 11.0005 2.99909 11Z" />
  <path fill-rule="evenodd" clip-rule="evenodd"
    d="M12 11C11.4477 11 11 11.4477 11 12C11 12.5523 11.4477 13 12 13C12.5523 13 13 12.5523 13 12C13 11.4477 12.5523 11 12 11ZM9 12C9 10.3431 10.3431 8.99998 12 8.99998C13.6569 8.99998 15 10.3431 15 12C15 13.6568 13.6569 15 12 15C10.3431 15 9 13.6568 9 12Z" />
</svg>