<svg width="24" height="24" viewBox="0 0 24 24" fill="none" xmlns="http://www.w3.org/2000/svg">
  <path
    d="M10 2C10.5523 2 11 2.44772 11 3V21C11 21.5523 10.5523 22 10 22C9.44771 22 9 21.5523 9 21V3C9 2.44772 9.44771 2 10 2Z" />
  <path
    d="M7 6C7 5.44772 6.55228 5 6 5C5.44772 5 5 5.44772 5 6V17C5 17.5523 5.44772 18 6 18C6.55228 18 7 17.5523 7 17V6Z" />
  <path
    d="M3 10C3 9.44772 2.55228 9 2 9C1.44772 9 1 9.44772 1 10V13C1 13.5523 1.44772 14 2 14C2.55228 14 3 13.5523 3 13V10Z" />
  <path
    d="M15 8C15 7.44772 14.5523 7 14 7C13.4477 7 13 7.44772 13 8V15C13 15.5523 13.4477 16 14 16C14.5523 16 15 15.5523 15 15V8Z" />
  <path
    d="M18 4C18.5523 4 19 4.44772 19 5V18C19 18.5523 18.5523 19 18 19C17.4477 19 17 18.5523 17 18V5C17 4.44772 17.4477 4 18 4Z" />
  <path
    d="M23 10C23 9.44772 22.5523 9 22 9C21.4477 9 21 9.44772 21 10V13C21 13.5523 21.4477 14 22 14C22.5523 14 23 13.5523 23 13V10Z" />
</svg>