<svg viewBox="0 0 24 24" fill="none" xmlns="http://www.w3.org/2000/svg">
  <path fill-rule="evenodd" clip-rule="evenodd"
    d="M12 0C18.6274 0 24 5.37258 24 12C24 18.6274 18.6274 24 12 24C5.37258 24 0 18.6274 0 12C0 5.37258 5.37258 0 12 0ZM12.5141 6.35944C12.0615 6.8387 12.0615 7.61573 12.5141 8.09499L15.043 10.7728H5.15898C4.51889 10.7728 4 11.3222 4 12C4 12.6778 4.51889 13.2272 5.15898 13.2272H15.043L12.5141 15.905C12.0615 16.3843 12.0615 17.1613 12.5141 17.6406C12.9667 18.1198 13.7006 18.1198 14.1532 17.6406L18.6605 12.8678C18.8869 12.6282 19 12.3141 19 12C19 11.9168 18.9921 11.8336 18.9762 11.7517C18.9321 11.5247 18.8269 11.3084 18.6605 11.1322L14.1532 6.35944C13.7006 5.88019 12.9667 5.88019 12.5141 6.35944Z"
  />
</svg>