<svg viewBox="0 0 24 24" xmlns="http://www.w3.org/2000/svg">
  <path fill-rule="evenodd" clip-rule="evenodd"
    d="M12 24C18.6274 24 24 18.6274 24 12C24 5.37258 18.6274 0 12 0C5.37258 0 0 5.37258 0 12C0 18.6274 5.37258 24 12 24ZM9.15889 8.01522C8.69704 7.52618 8.69704 6.73327 9.15889 6.24423C9.62075 5.75518 10.3696 5.75518 10.8314 6.24423L15.4308 11.1145C15.6006 11.2942 15.708 11.515 15.7529 11.7466C15.7691 11.8301 15.7772 11.9151 15.7772 12C15.7772 12.3205 15.6618 12.641 15.4308 12.8855L10.8314 17.7557C10.3696 18.2448 9.62075 18.2448 9.15889 17.7557C8.69704 17.2667 8.69704 16.4738 9.15889 15.9847L12.9221 12L9.15889 8.01522Z" />
</svg>