<svg width="24" height="24" viewBox="0 0 24 24" fill="none" xmlns="http://www.w3.org/2000/svg">
<path fill-rule="evenodd" clip-rule="evenodd" d="M12 3C7.02944 3 3 7.02944 3 12C3 16.9706 7.02944 21 12 21C16.9706 21 21 16.9706 21 12C21 7.02944 16.9706 3 12 3ZM1 12C1 5.92487 5.92487 1 12 1C18.0751 1 23 5.92487 23 12C23 18.0751 18.0751 23 12 23C5.92487 23 1 18.0751 1 12Z" />
<path fill-rule="evenodd" clip-rule="evenodd" d="M16.9471 7.05287C17.2149 7.3207 17.3084 7.71687 17.1887 8.0762L15.0687 14.4362C14.9691 14.7348 14.7348 14.9691 14.4362 15.0687L8.0762 17.1887C7.71687 17.3084 7.3207 17.2149 7.05287 16.9471C6.78504 16.6792 6.69151 16.2831 6.81129 15.9237L8.93129 9.56375C9.03083 9.26514 9.26514 9.03083 9.56375 8.93129L15.9237 6.81129C16.2831 6.69151 16.6792 6.78504 16.9471 7.05287ZM10.6705 10.6705L9.34111 14.6588L13.3294 13.3294L14.6588 9.34111L10.6705 10.6705Z" />
</svg>
