<svg width="24" height="24" viewBox="0 0 24 24" fill="none" xmlns="http://www.w3.org/2000/svg">
  <path fill-rule="evenodd" clip-rule="evenodd"
    d="M6 11C6.26522 11 6.51957 11.1054 6.70711 11.2929L12.7071 17.2929C12.8946 17.4804 13 17.7348 13 18C13 18.2652 12.8946 18.5196 12.7071 18.7071L10.4083 21.0059C10.0926 21.3226 9.71694 21.5744 9.30385 21.746C8.89057 21.9176 8.44749 22.0059 8 22.0059C7.55251 22.0059 7.10943 21.9176 6.69615 21.746C6.2831 21.5744 5.90794 21.3231 5.59218 21.0064L2.99412 18.4083C2.67745 18.0926 2.42554 17.7169 2.25405 17.3039C2.08244 16.8906 1.99411 16.4475 1.99411 16C1.99411 15.5525 2.08244 15.1094 2.25405 14.6962C2.42553 14.2832 2.67679 13.9081 2.99345 13.5923L5.29289 11.2929C5.48043 11.1054 5.73478 11 6 11ZM6 13.4142L4.40588 15.0083C4.27536 15.1384 4.1718 15.2929 4.10114 15.4631C4.03048 15.6333 3.99411 15.8157 3.99411 16C3.99411 16.1843 4.03048 16.3667 4.10114 16.5369C4.1718 16.7071 4.27536 16.8616 4.40588 16.9917L4.40711 16.9929L7.00833 19.5941C7.1384 19.7246 7.29295 19.8282 7.46312 19.8989C7.63329 19.9695 7.81574 20.0059 8 20.0059C8.18426 20.0059 8.36671 19.9695 8.53688 19.8989C8.70705 19.8282 8.8616 19.7246 8.99167 19.5941L10.5858 18L6 13.4142Z" />
  <path fill-rule="evenodd" clip-rule="evenodd"
    d="M5.70711 18.2929C6.09763 18.6834 6.09763 19.3166 5.70711 19.7071L2.70711 22.7071C2.31658 23.0976 1.68342 23.0976 1.29289 22.7071C0.902369 22.3166 0.902369 21.6834 1.29289 21.2929L4.29289 18.2929C4.68342 17.9024 5.31658 17.9024 5.70711 18.2929Z" />
  <path fill-rule="evenodd" clip-rule="evenodd"
    d="M10.7071 10.2929C11.0976 10.6834 11.0976 11.3166 10.7071 11.7071L8.20711 14.2071C7.81658 14.5976 7.18342 14.5976 6.79289 14.2071C6.40237 13.8166 6.40237 13.1834 6.79289 12.7929L9.29289 10.2929C9.68342 9.90237 10.3166 9.90237 10.7071 10.2929Z" />
  <path fill-rule="evenodd" clip-rule="evenodd"
    d="M13.7071 13.2929C14.0976 13.6834 14.0976 14.3166 13.7071 14.7071L11.2071 17.2071C10.8166 17.5976 10.1834 17.5976 9.79289 17.2071C9.40237 16.8166 9.40237 16.1834 9.79289 15.7929L12.2929 13.2929C12.6834 12.9024 13.3166 12.9024 13.7071 13.2929Z" />
  <path fill-rule="evenodd" clip-rule="evenodd"
    d="M18.7071 2.29289C19.0976 2.68342 19.0976 3.31658 18.7071 3.70711L16.4142 6H20C20.4045 6 20.7691 6.24364 20.9239 6.61732C21.0787 6.99099 20.9931 7.42111 20.7071 7.70711L16.7071 11.7071C16.3166 12.0976 15.6834 12.0976 15.2929 11.7071C14.9024 11.3166 14.9024 10.6834 15.2929 10.2929L17.5858 8H14C13.5955 8 13.2309 7.75636 13.0761 7.38268C12.9213 7.00901 13.0069 6.57889 13.2929 6.29289L17.2929 2.29289C17.6834 1.90237 18.3166 1.90237 18.7071 2.29289Z" />
</svg>