<svg width="24" height="24" viewBox="0 0 24 24" fill="none" xmlns="http://www.w3.org/2000/svg">
  <g clip-path="url(#clip0_789_205)">
    <path
      d="M16 23C15.4 23 15 22.6 15 22V18.1C15.1 17.3 14.8 16.7 14.3 16.2C14 15.9 13.9 15.5 14.1 15.2C14.2 14.8 14.6 14.6 14.9 14.5C17.8 14.2 20.5 13.2 20.5 8.49999C20.5 7.39999 20.1 6.29999 19.3 5.39999C19 5.09999 19 4.69999 19.1 4.39999C19.4 3.59999 19.4 2.79999 19.2 1.99999C18.7 2.09999 17.9 2.39999 16.6 3.29999C16.4 3.49999 16.1 3.49999 15.8 3.39999C13.7 2.79999 11.4 2.79999 9.29998 3.39999C8.99998 3.49999 8.69998 3.49999 8.39998 3.29999C7.19998 2.39999 6.29998 2.09999 5.79998 1.99999C5.59998 2.79999 5.59998 3.59999 5.89998 4.39999C5.99998 4.79999 5.99998 5.19999 5.69998 5.39999C4.89998 6.29999 4.49998 7.39999 4.49998 8.49999C4.49998 13.2 7.19998 14.2 10.1 14.5C10.5 14.5 10.8 14.8 10.9 15.2C11 15.6 10.9 16 10.7 16.2C10.2 16.7 9.99998 17.3 9.99998 18V18.9V19V21.9C9.99998 22.5 9.59998 22.9 8.99998 22.9C8.39998 22.9 7.99998 22.5 7.99998 21.9V20.2C4.99998 20.7 3.69998 19 2.79998 17.9C2.39998 17.4 2.09998 17 1.69998 16.9C1.19998 16.8 0.799984 16.2 0.999984 15.7C1.09998 15.2 1.69998 14.8 2.19998 15C3.19998 15.3 3.79998 16 4.39998 16.7C5.19998 17.8 5.89998 18.6 7.99998 18.2V18.1C7.99998 17.5 8.09998 16.8 8.29998 16.3C5.49998 15.7 2.49998 13.9 2.49998 8.59999C2.49998 7.09999 2.99998 5.69999 3.89998 4.59999C3.49998 3.19999 3.59998 1.89999 4.19998 0.599988C4.29998 0.299988 4.49998 0.0999879 4.79998 -1.20923e-05C5.19998 -0.100012 6.49998 -0.300012 9.19998 1.39999C11.4 0.899988 13.7 0.899988 15.8 1.39999C18.4 -0.300012 19.8 -0.100012 20.2 -1.20923e-05C20.5 0.0999879 20.7 0.299988 20.8 0.599988C21.3 1.89999 21.4 3.19999 21.1 4.49999C22 5.59999 22.5 6.99999 22.5 8.49999C22.5 14.2 19.1 15.7 16.7 16.3C16.9 16.9 17 17.6 17 18.2V22C17 22.6 16.6 23 16 23Z" />
  </g>
  <defs>
    <clipPath id="clip0_789_205">
      <rect width="24" height="24" fill="white" />
    </clipPath>
  </defs>
</svg>