<svg width="24" height="24" viewBox="0 0 24 24" fill="none" xmlns="http://www.w3.org/2000/svg">
  <path
    d="M12 5C11.4477 5 11 5.44772 11 6C11 6.55228 11.4477 7 12 7H12.01C12.5623 7 13.01 6.55228 13.01 6C13.01 5.44772 12.5623 5 12.01 5H12Z" />
  <path
    d="M12 13C11.4477 13 11 13.4477 11 14C11 14.5523 11.4477 15 12 15H12.01C12.5623 15 13.01 14.5523 13.01 14C13.01 13.4477 12.5623 13 12.01 13H12Z" />
  <path fill-rule="evenodd" clip-rule="evenodd"
    d="M7 14C7 11.2386 9.23858 9 12 9C14.7614 9 17 11.2386 17 14C17 16.7614 14.7614 19 12 19C9.23858 19 7 16.7614 7 14ZM12 11C10.3431 11 9 12.3431 9 14C9 15.6569 10.3431 17 12 17C13.6569 17 15 15.6569 15 14C15 12.3431 13.6569 11 12 11Z" />
  <path fill-rule="evenodd" clip-rule="evenodd"
    d="M6 1C4.34315 1 3 2.34315 3 4V20C3 21.6569 4.34315 23 6 23H18C19.6569 23 21 21.6569 21 20V4C21 2.34315 19.6569 1 18 1H6ZM5 4C5 3.44772 5.44772 3 6 3H18C18.5523 3 19 3.44772 19 4V20C19 20.5523 18.5523 21 18 21H6C5.44772 21 5 20.5523 5 20V4Z" />
</svg>