<svg width="24" height="24" viewBox="0 0 24 24" fill="none" xmlns="http://www.w3.org/2000/svg">
  <path
    d="M14 16C12.2 16 10.4 15.2 9.20001 13.6C8.90001 13.2 9.00001 12.5 9.40001 12.2C9.80001 11.9 10.5 12 10.8 12.4C12.1 14.2 14.6 14.5 16.4 13.2C16.6 13.1 16.7 13 16.8 12.8L19.8 9.80001C21.3 8.20001 21.3 5.70001 19.7 4.20001C18.1 2.70001 15.7 2.70001 14.1 4.20001L12.4 5.90001C12 6.30001 11.4 6.30001 11 5.90001C10.6 5.50001 10.6 4.90001 11 4.50001L12.7 2.80001C15 0.500012 18.7 0.500012 21 2.80001C23.4 5.10001 23.4 8.90001 21.1 11.3L18.1 14.3C17.9 14.5 17.7 14.7 17.4 14.9C16.5 15.6 15.3 16 14 16Z" />
  <path
    d="M7.09998 22.9C5.59998 22.9 4.09998 22.3 2.89998 21.2C0.49998 18.9 0.49998 15.1 2.79998 12.7L5.79998 9.7C5.99998 9.6 6.19998 9.4 6.39998 9.2C7.69998 8.2 9.29998 7.8 10.8 8.1C12.4 8.3 13.8 9.2 14.7 10.4C15 10.8 14.9 11.5 14.5 11.8C14.1 12.1 13.4 12 13.1 11.6C12.5 10.7 11.5 10.2 10.5 10C9.39998 9.8 8.39998 10.1 7.49998 10.8C7.29998 10.9 7.19998 11 7.09998 11.2L4.09998 14.2C2.59998 15.8 2.59998 18.3 4.19998 19.8C5.79998 21.3 8.19998 21.3 9.79998 19.8L11.5 18.1C11.9 17.7 12.5 17.7 12.9 18.1C13.3 18.5 13.3 19.1 12.9 19.5L11.2 21.2C10.1 22.4 8.59998 22.9 7.09998 22.9Z" />
</svg>