<svg width="24" height="24" viewBox="0 0 24 24" fill="none" xmlns="http://www.w3.org/2000/svg">
  <path
    d="M22 22H18C17.4 22 17 21.6 17 21V14C17 13.4 16.6 13 16 13C15.4 13 15 13.4 15 14V21C15 21.6 14.6 22 14 22H10C9.4 22 9 21.6 9 21V14C9 10.1 12.1 7 16 7C19.9 7 23 10.1 23 14V21C23 21.6 22.6 22 22 22ZM19 20H21V14C21 11.2 18.8 9 16 9C13.2 9 11 11.2 11 14V20H13V14C13 12.3 14.3 11 16 11C17.7 11 19 12.3 19 14V20Z" />
  <path
    d="M6 22H2C1.4 22 1 21.6 1 21V9C1 8.4 1.4 8 2 8H6C6.6 8 7 8.4 7 9V21C7 21.6 6.6 22 6 22ZM3 20H5V10H3V20Z" />
  <path
    d="M4 7C2.3 7 1 5.7 1 4C1 2.3 2.3 1 4 1C5.7 1 7 2.3 7 4C7 5.7 5.7 7 4 7ZM4 3C3.4 3 3 3.4 3 4C3 4.6 3.4 5 4 5C4.6 5 5 4.6 5 4C5 3.4 4.6 3 4 3Z" />
</svg>