<svg width="24" height="24" viewBox="0 0 24 24" fill="none" xmlns="http://www.w3.org/2000/svg">
<path fill-rule="evenodd" clip-rule="evenodd" d="M15.78 2.38776C14.9837 2.38776 14.2201 2.70406 13.6571 3.26709L4.46709 12.4571C3.52878 13.3954 3.00165 14.668 3.00165 15.995C3.00165 17.3219 3.52878 18.5946 4.46709 19.5329C5.4054 20.4712 6.67802 20.9983 8.00498 20.9983C9.33195 20.9983 10.6046 20.4712 11.5429 19.5329L20.7329 10.3429C21.1234 9.95235 21.7566 9.95235 22.1471 10.3429C22.5376 10.7334 22.5376 11.3666 22.1471 11.7571L12.9571 20.9471C11.6437 22.2605 9.86238 22.9983 8.00498 22.9983C6.14758 22.9983 4.36626 22.2605 3.05288 20.9471C1.7395 19.6337 1.00165 17.8524 1.00165 15.995C1.00165 14.1376 1.7395 12.3563 3.05288 11.0429L12.2429 1.85287C13.181 0.914775 14.4533 0.387756 15.78 0.387756C17.1067 0.387756 18.379 0.914775 19.3171 1.85287C20.2552 2.79097 20.7822 4.06331 20.7822 5.38998C20.7822 6.71665 20.2552 7.98899 19.3171 8.92709L10.1171 18.1171C9.55427 18.6799 8.79093 18.9961 7.99498 18.9961C7.19904 18.9961 6.43569 18.6799 5.87288 18.1171C5.31006 17.5543 4.99387 16.7909 4.99387 15.995C4.99387 15.199 5.31006 14.4357 5.87288 13.8729L14.3633 5.39246C14.754 5.00216 15.3872 5.00254 15.7775 5.39329C16.1678 5.78404 16.1674 6.41721 15.7767 6.8075L7.28709 15.2871C7.09961 15.4748 6.99387 15.7297 6.99387 15.995C6.99387 16.2605 7.09935 16.5151 7.28709 16.7029C7.47484 16.8906 7.72947 16.9961 7.99498 16.9961C8.2605 16.9961 8.51513 16.8906 8.70288 16.7029L17.9029 7.51287C18.4657 6.94989 18.7822 6.18604 18.7822 5.38998C18.7822 4.59374 18.4659 3.83011 17.9029 3.26709C17.3399 2.70406 16.5762 2.38776 15.78 2.38776Z" />
</svg>
