<svg width="24" height="24" viewBox="0 0 24 24" fill="none" xmlns="http://www.w3.org/2000/svg">
  <g clip-path="url(#clip0_789_203)">
    <path
      d="M20 22.9C19.9 22.9 19.8 22.9 19.7 22.9C16.5 22.5 13.3 21.4 10.6 19.7C8.09998 18.1 5.89998 15.9 4.29998 13.4C2.49998 10.7 1.39998 7.49999 1.09998 4.29999C1.09998 3.49999 1.29998 2.69999 1.79998 2.09999C2.29998 1.49999 2.99998 1.09999 3.79998 0.999994C3.89998 0.999994 3.99998 0.999994 4.09998 0.999994H7.09998C8.59998 0.999994 9.89998 2.09999 10.1 3.59999C10.2 4.49999 10.4 5.39999 10.7 6.19999C11.1 7.29999 10.8 8.49999 9.99998 9.39999L9.29998 10.1C10.5 11.9 12 13.5 13.9 14.7L14.6 14C15.4 13.2 16.7 12.9 17.8 13.3C18.6 13.6 19.5 13.8 20.4 13.9C21.9 14.1 23 15.4 23 16.9V19.9C23 20.7 22.7 21.5 22.1 22C21.5 22.5 20.8 22.9 20 22.9ZM7.09998 2.99999H4.09998C3.79998 2.99999 3.49998 3.19999 3.29998 3.39999C3.19998 3.59999 3.09998 3.79999 3.09998 4.09999C3.39998 6.99999 4.39998 9.79999 5.99998 12.3C7.49998 14.6 9.39998 16.6 11.7 18C14.2 19.6 17 20.6 19.9 20.9C20.3 20.9 20.5 20.8 20.7 20.6C20.9 20.4 21 20.2 21 19.9V16.9C21 16.4 20.6 16 20.1 15.9C19.1 15.8 18.1 15.5 17.1 15.1C16.7 15 16.3 15 16 15.3L14.7 16.6C14.4 16.9 13.9 17 13.5 16.8C10.8 15.3 8.59998 13.1 7.09998 10.4C6.99998 9.99999 7.09998 9.49999 7.39998 9.19999L8.69998 7.89999C8.89998 7.69999 8.99998 7.19999 8.89998 6.89999C8.49998 5.89999 8.29998 4.89999 8.09998 3.89999C8.09998 3.39999 7.59998 2.99999 7.09998 2.99999ZM19 9.99999C18.5 9.99999 18.1 9.69999 18 9.19999C17.7 7.59999 16.4 6.39999 14.8 5.99999C14.3 5.89999 13.9 5.39999 14 4.79999C14.1 4.29999 14.6 3.89999 15.2 3.99999C17.6 4.49999 19.5 6.29999 19.9 8.69999C20 9.19999 19.7 9.79999 19.1 9.89999C19.1 9.89999 19.1 9.99999 19 9.99999ZM23 9.89999C22.5 9.89999 22.1 9.49999 22 8.99999C21.6 5.29999 18.7 2.39999 14.9 1.89999C14.4 1.79999 14 1.29999 14 0.799994C14.1 0.299994 14.6 -0.100006 15.1 -0.100006C19.8 0.399994 23.4 3.99999 23.9 8.69999C24 9.19999 23.6 9.69999 23 9.79999C23.1 9.89999 23 9.89999 23 9.89999Z" />
  </g>
  <defs>
    <clipPath id="clip0_789_203">
      <rect width="24" height="24" fill="white" />
    </clipPath>
  </defs>
</svg>