<svg width="24" height="24" viewBox="0 0 24 24" fill="none" xmlns="http://www.w3.org/2000/svg">
<path fill-rule="evenodd" clip-rule="evenodd" d="M19.1625 13.3335C19.6406 13.0571 20.2523 13.2205 20.5287 13.6986L21.7566 15.8217C21.9983 16.2433 22.1255 16.7208 22.1255 17.2067C22.1255 17.6927 21.9983 18.1701 21.7566 18.5917L21.7471 18.6078C21.4977 19.0244 21.1454 19.3698 20.724 19.6108C20.3026 19.8518 19.8263 19.9804 19.3408 19.9842L19.3331 19.9842L11.1301 19.9842C10.5778 19.9842 10.1301 19.5365 10.1301 18.9842C10.1301 18.4319 10.5778 17.9842 11.1301 17.9842H19.3285C19.4698 17.9826 19.6083 17.9449 19.731 17.8747C19.8519 17.8056 19.9534 17.7072 20.0262 17.5886C20.0913 17.4719 20.1255 17.3405 20.1255 17.2067C20.1255 17.0704 20.0899 16.9364 20.0223 16.818C20.0221 16.8175 20.0218 16.8171 20.0216 16.8167L18.7974 14.6998C18.5209 14.2217 18.6844 13.61 19.1625 13.3335Z" />
<path fill-rule="evenodd" clip-rule="evenodd" d="M14.8372 15.2771C15.2277 15.6676 15.2277 16.3008 14.8372 16.6913L12.5443 18.9842L14.8372 21.2771C15.2277 21.6676 15.2277 22.3008 14.8372 22.6913C14.4467 23.0818 13.8135 23.0818 13.423 22.6913L10.423 19.6913C10.0324 19.3008 10.0324 18.6676 10.423 18.2771L13.423 15.2771C13.8135 14.8866 14.4467 14.8866 14.8372 15.2771Z" />
<path fill-rule="evenodd" clip-rule="evenodd" d="M8.67977 6.87562C8.20128 6.59982 8.03697 5.98835 8.31277 5.50986L9.53755 3.38497C9.78175 2.96484 10.1317 2.61595 10.5525 2.37297C10.9733 2.13 11.4505 2.00141 11.9364 2L11.9551 2.00012C12.4405 2.0078 12.9158 2.14022 13.3353 2.38465C13.7547 2.62908 14.1042 2.97731 14.3502 3.39585L14.3541 3.40252L18.4556 10.5065C18.7317 10.9848 18.5679 11.5964 18.0896 11.8726C17.6113 12.1487 16.9997 11.9848 16.7236 11.5065L12.6244 4.40653C12.5523 4.28497 12.4504 4.18381 12.3283 4.11265C12.208 4.04254 12.072 4.00385 11.9329 4.00007C11.7993 4.00205 11.6683 4.03815 11.5525 4.10503C11.4344 4.1732 11.3362 4.271 11.2674 4.38873C11.2672 4.38916 11.2669 4.38959 11.2667 4.39001L10.0455 6.50862C9.76973 6.98711 9.15826 7.15143 8.67977 6.87562Z" />
<path fill-rule="evenodd" clip-rule="evenodd" d="M12.5256 9.64965C12.6685 9.11618 13.2168 8.7996 13.7503 8.94254L16.8825 9.7818L17.7217 6.64965C17.8647 6.11618 18.413 5.7996 18.9465 5.94254C19.4799 6.08548 19.7965 6.63382 19.6536 7.16729L18.5555 11.2654C18.4126 11.7988 17.8642 12.1154 17.3308 11.9725L13.2327 10.8744C12.6992 10.7315 12.3826 10.1831 12.5256 9.64965Z" />
<path fill-rule="evenodd" clip-rule="evenodd" d="M4.10093 17.6434C4.17476 17.7619 4.27734 17.86 4.39922 17.9284C4.52397 17.9984 4.6647 18.035 4.80776 18.0346L4.81081 18.0346L6.99583 18.0352C7.54812 18.0353 7.99572 18.4831 7.99557 19.0354C7.99543 19.5877 7.5476 20.0353 6.99531 20.0352L4.81165 20.0346C4.32445 20.0357 3.84521 19.9109 3.42034 19.6725C2.99497 19.4337 2.63853 19.0891 2.38561 18.672L2.37558 18.6551C2.13062 18.2326 2.00109 17.7532 2.00001 17.2648C1.99892 16.7765 2.12631 16.2964 2.36939 15.8729L2.3711 15.8699L6.32582 9.03363C6.60237 8.55558 7.2141 8.39223 7.69216 8.66878C8.17022 8.94533 8.33357 9.55706 8.05702 10.0351L4.10402 16.8684C4.10379 16.8688 4.10356 16.8692 4.10333 16.8696C4.03533 16.9886 3.9997 17.1233 4 17.2604C4.0003 17.3946 4.03508 17.5265 4.10093 17.6434Z" />
<path fill-rule="evenodd" clip-rule="evenodd" d="M2.12981 10.8913C1.98681 10.3578 2.30332 9.80946 2.83677 9.66645L6.93251 8.56848C7.18872 8.4998 7.46244 8.53615 7.69216 8.66878C7.92188 8.80141 8.08878 9.01944 8.1574 9.27566L9.25451 13.3719C9.39739 13.9054 9.08075 14.4537 8.54726 14.5966C8.01378 14.7395 7.46548 14.4228 7.3226 13.8893L6.48427 10.7593L3.35464 11.5982C2.82119 11.7412 2.27282 11.4247 2.12981 10.8913Z" />
</svg>
