<svg width="24" height="24" viewBox="0 0 24 24" fill="none" xmlns="http://www.w3.org/2000/svg">
  <path fill-rule="evenodd" clip-rule="evenodd"
    d="M8.5 4.5C8.5 2.567 10.067 1 12 1C13.933 1 15.5 2.567 15.5 4.5C15.5 6.433 13.933 8 12 8C11.3972 8 10.8301 7.84763 10.3349 7.57931L7.57931 10.3349C7.69295 10.5446 7.78578 10.7672 7.85506 11H16.1449C16.5752 9.55426 17.9145 8.5 19.5 8.5C21.433 8.5 23 10.067 23 12C23 13.933 21.433 15.5 19.5 15.5C18.8972 15.5 18.3301 15.3476 17.8349 15.0793L15.0793 17.8349C15.3476 18.3301 15.5 18.8972 15.5 19.5C15.5 21.433 13.933 23 12 23C10.067 23 8.5 21.433 8.5 19.5C8.5 17.567 10.067 16 12 16C12.6028 16 13.1699 16.1524 13.6651 16.4207L16.4207 13.6651C16.3071 13.4554 16.2142 13.2328 16.1449 13H7.85506C7.42479 14.4457 6.08551 15.5 4.5 15.5C2.567 15.5 1 13.933 1 12C1 10.067 2.567 8.5 4.5 8.5C5.10276 8.5 5.66992 8.65237 6.16509 8.92069L8.92069 6.16509C8.65237 5.66992 8.5 5.10276 8.5 4.5ZM12 3C11.1716 3 10.5 3.67157 10.5 4.5C10.5 5.32843 11.1716 6 12 6C12.8284 6 13.5 5.32843 13.5 4.5C13.5 3.67157 12.8284 3 12 3ZM18 12C18 12.8284 18.6716 13.5 19.5 13.5C20.3284 13.5 21 12.8284 21 12C21 11.1716 20.3284 10.5 19.5 10.5C18.6716 10.5 18 11.1716 18 12ZM4.5 10.5C5.32843 10.5 6 11.1716 6 12C6 12.8284 5.32843 13.5 4.5 13.5C3.67157 13.5 3 12.8284 3 12C3 11.1716 3.67157 10.5 4.5 10.5ZM10.5 19.5C10.5 18.6716 11.1716 18 12 18C12.8284 18 13.5 18.6716 13.5 19.5C13.5 20.3284 12.8284 21 12 21C11.1716 21 10.5 20.3284 10.5 19.5Z" />
</svg>