<svg width="24" height="24" viewBox="0 0 24 24" fill="none" xmlns="http://www.w3.org/2000/svg">
  <path fill-rule="evenodd" clip-rule="evenodd"
    d="M11.8544 3.35181C11.9491 3.48198 11.9998 3.63504 12 3.79168V20.2061C12.0002 20.363 11.9498 20.5165 11.8552 20.6471C11.7605 20.7777 11.6258 20.8795 11.4682 20.9396C11.3106 20.9997 11.1372 21.0154 10.9699 20.9847C10.8026 20.954 10.649 20.8783 10.5284 20.7672L6.39367 16.9617C6.23405 16.8139 6.04415 16.6968 5.83498 16.6171C5.62581 16.5373 5.40152 16.4966 5.17511 16.4972H2.22222C1.89807 16.4972 1.58719 16.3787 1.35798 16.1678C1.12877 15.9569 1 15.6709 1 15.3726V8.62513C1 8.32688 1.12877 8.04083 1.35798 7.82993C1.58719 7.61903 1.89807 7.50055 2.22222 7.50055H5.17511C5.40152 7.50116 5.62581 7.46042 5.83498 7.3807C6.04415 7.30097 6.23405 7.18384 6.39367 7.0361L10.5297 3.23164C10.6502 3.12099 10.8036 3.04567 10.9706 3.01517C11.1376 2.98467 11.3106 3.00037 11.4679 3.06029C11.6252 3.1202 11.7597 3.22164 11.8544 3.35181ZM9.90734 7.19545C9.9676 7.26777 9.99984 7.3528 10 7.43982V16.5589C10.0002 16.6461 9.96807 16.7314 9.90783 16.804C9.84759 16.8765 9.7619 16.933 9.66161 16.9664C9.56132 16.9998 9.45095 17.0085 9.34448 16.9915C9.23802 16.9745 9.14024 16.9324 9.06355 16.8707L6.43233 14.7565C6.33076 14.6744 6.20992 14.6093 6.07681 14.565C5.9437 14.5207 5.80097 14.4981 5.65689 14.4984H3.77778C3.5715 14.4984 3.37367 14.4326 3.22781 14.3155C3.08194 14.1983 3 14.0394 3 13.8737V10.1251C3 9.95938 3.08194 9.80046 3.22781 9.6833C3.37367 9.56613 3.5715 9.50031 3.77778 9.50031H5.65689C5.80097 9.50065 5.9437 9.47801 6.07681 9.43372C6.20992 9.38943 6.33076 9.32436 6.43233 9.24228L9.06433 7.12869C9.14102 7.06722 9.23865 7.02537 9.34491 7.00843C9.45117 6.99149 9.5613 7.00021 9.6614 7.03349C9.76149 7.06678 9.84707 7.12313 9.90734 7.19545Z" />
  <path
    d="M15.4 8.2C15.8418 7.86863 16.4686 7.95817 16.8 8.4C17.5789 9.43857 18 10.7018 18 12C18 13.2982 17.5789 14.5614 16.8 15.6C16.4686 16.0418 15.8418 16.1314 15.4 15.8C14.9582 15.4686 14.8686 14.8418 15.2 14.4C15.7193 13.7076 16 12.8655 16 12C16 11.1345 15.7193 10.2924 15.2 9.6C14.8686 9.15817 14.9582 8.53137 15.4 8.2Z" />
  <path
    d="M20.0711 4.92888C19.6806 4.53835 19.0474 4.53836 18.6569 4.92888C18.2664 5.31941 18.2664 5.95258 18.6569 6.3431C19.3998 7.08597 19.9891 7.96789 20.3911 8.9385C20.7931 9.90911 21.0001 10.9494 21.0001 12C21.0001 13.0506 20.7931 14.0909 20.3911 15.0615C19.9891 16.0321 19.3998 16.914 18.6569 17.6569C18.2664 18.0474 18.2664 18.6806 18.6569 19.0711C19.0474 19.4616 19.6806 19.4616 20.0711 19.0711C20.9997 18.1425 21.7363 17.0401 22.2389 15.8268C22.7414 14.6136 23.0001 13.3132 23.0001 12C23.0001 10.6868 22.7414 9.38639 22.2389 8.17312C21.7363 6.95986 20.9997 5.85746 20.0711 4.92888Z" />
</svg>