<svg width="24" height="24" viewBox="0 0 24 24" fill="none" xmlns="http://www.w3.org/2000/svg">
  <path
    d="M3.11448 14.1994C2.9043 14.2001 2.69823 14.1418 2.52021 14.0311C2.34219 13.9205 2.19953 13.7621 2.1088 13.5744C2.01808 13.3867 1.98301 13.1773 2.00767 12.9707C2.03234 12.764 2.11572 12.5685 2.24814 12.4069L13.244 1.18982C13.3265 1.09555 13.4389 1.03185 13.5627 1.00917C13.6866 0.986488 13.8146 1.00618 13.9256 1.065C14.0367 1.12383 14.1243 1.21829 14.174 1.3329C14.2237 1.4475 14.2326 1.57543 14.1992 1.69568L12.0666 8.31596C12.0038 8.48259 11.9826 8.66184 12.0051 8.83833C12.0276 9.01482 12.0929 9.18328 12.1956 9.32926C12.2982 9.47525 12.4351 9.59439 12.5945 9.67648C12.7539 9.75857 12.931 9.80115 13.1107 9.80057H20.8855C21.0957 9.79986 21.3018 9.85822 21.4798 9.96885C21.6578 10.0795 21.8005 10.2379 21.8912 10.4256C21.9819 10.6133 22.017 10.8227 21.9923 11.0293C21.9677 11.236 21.8843 11.4315 21.7519 11.5931L10.756 22.8102C10.6735 22.9044 10.5611 22.9681 10.4373 22.9908C10.3134 23.0135 10.1854 22.9938 10.0744 22.935C9.96329 22.8762 9.87571 22.7817 9.82601 22.6671C9.7763 22.5525 9.76743 22.4246 9.80083 22.3043L11.9334 15.684C11.9962 15.5174 12.0174 15.3382 11.9949 15.1617C11.9724 14.9852 11.9071 14.8167 11.8044 14.6707C11.7018 14.5248 11.5649 14.4056 11.4055 14.3235C11.2461 14.2414 11.069 14.1988 10.8893 14.1994H3.11448Z" />
</svg>