<svg width="24" height="24" viewBox="0 0 24 24" fill="none" xmlns="http://www.w3.org/2000/svg">
<path fill-rule="evenodd" clip-rule="evenodd" d="M20.5641 3.31561C20.3205 3.10653 20.0086 2.99416 19.6877 2.99984L19.67 3H18V12H19.67L19.6877 12.0002C20.0086 12.0058 20.3205 11.8935 20.5641 11.6844C20.793 11.4879 20.9466 11.2188 21 10.9231V4.07686C20.9466 3.78114 20.793 3.5121 20.5641 3.31561ZM16 12.7878V3H5.70866C5.4675 2.99727 5.23348 3.08173 5.04971 3.23793C4.86595 3.39413 4.74483 3.61148 4.70867 3.84993L3.32865 12.8501C3.32862 12.8503 3.32867 12.8499 3.32865 12.8501C3.307 12.9932 3.31661 13.1399 3.35698 13.2789C3.39739 13.4181 3.4676 13.5469 3.56272 13.6563C3.65784 13.7657 3.77561 13.8531 3.90786 13.9125C4.04011 13.9718 4.18369 14.0017 4.32865 14.0001L4.33997 13.9999L9.99997 14C10.5523 14 11 14.4477 11 15V19C11 19.5304 11.2107 20.0391 11.5858 20.4142C11.8136 20.6421 12.0908 20.8092 12.3921 20.9054L16 12.7878ZM17.6498 14L13.9138 22.4061C13.7533 22.7673 13.3952 23 13 23C11.9391 23 10.9217 22.5786 10.1715 21.8284C9.4214 21.0783 8.99997 20.0609 8.99997 19V16H4.34508C3.91233 16.004 3.48381 15.9143 3.08894 15.7371C2.69217 15.559 2.33887 15.2968 2.05351 14.9687C1.76814 14.6405 1.55754 14.2542 1.43628 13.8366C1.31503 13.4189 1.28603 12.9799 1.35129 12.5499L2.73127 3.55006C2.73123 3.55036 2.73132 3.54976 2.73127 3.55006C2.83993 2.83505 3.20335 2.18245 3.75442 1.71405C4.30413 1.24679 5.00376 0.993336 5.72505 0.999995H19.6619C20.4695 0.988062 21.2537 1.27182 21.8667 1.79802C22.4822 2.3263 22.8822 3.06218 22.9909 3.86595C22.997 3.91038 23 3.95516 23 4V11C23 11.0448 22.997 11.0896 22.9909 11.134C22.8822 11.9378 22.4822 12.6737 21.8667 13.202C21.2537 13.7282 20.4695 14.0119 19.6619 14H17.6498Z" />
</svg>
