<svg width="24" height="24" viewBox="0 0 24 24" fill="none" xmlns="http://www.w3.org/2000/svg">
  <path
    d="M21.7071 2.29289C21.9749 2.56072 22.0685 2.95689 21.9487 3.31622L20.9487 6.31622C20.8391 6.64502 20.5671 6.89362 20.2298 6.97325C19.8925 7.05287 19.538 6.95217 19.2929 6.7071L19 6.41421L11.7795 13.6347L14.7592 14.8266L17.1166 12.4692C16.9157 12.0912 16.9744 11.6114 17.2929 11.2929L18.2929 10.2929C18.6834 9.90237 19.3166 9.90237 19.7071 10.2929L20.7071 11.2929C21.0976 11.6834 21.0976 12.3166 20.7071 12.7071L19.7071 13.7071C19.3886 14.0256 18.9088 14.0843 18.5308 13.8834L15.7071 16.7071C15.4243 16.99 15 17.077 14.6286 16.9285L10.2408 15.1734L7.72257 17.6916C7.7123 17.7024 7.70177 17.7129 7.69098 17.7232L5.93226 19.482C5.97644 19.6472 6 19.8208 6 20C6 21.1046 5.10457 22 4 22C2.89543 22 2 21.1046 2 20C2 18.8954 2.89543 18 4 18C4.17916 18 4.35281 18.0236 4.51804 18.0677L5.82663 16.7592L4.07152 12.3714C3.9239 12.0023 4.00887 11.5809 4.28796 11.2978L8.05694 7.47579C8.01973 7.3233 8 7.16395 8 7C8 5.89543 8.89543 5 10 5C11.1046 5 12 5.89543 12 7C12 8.10457 11.1046 9 10 9C9.80592 9 9.6183 8.97236 9.44086 8.92079L6.17151 12.2362L7.36525 15.2205L9.27686 13.3089C9.28711 13.2982 9.29758 13.2877 9.30827 13.2775L17.5858 4.99999L17.2929 4.7071C17.0478 4.46204 16.9471 4.10755 17.0268 3.77024C17.1064 3.43294 17.355 3.16091 17.6838 3.05131L20.6838 2.05131C21.0431 1.93154 21.4393 2.02506 21.7071 2.29289Z" />
</svg>