<svg xmlns="http://www.w3.org/2000/svg" version="1.1" xmlns:xlink="http://www.w3.org/1999/xlink" xmlns:svgjs="http://svgjs.dev/svgjs" width="60" height="68"><svg width="60" height="68" viewBox="0 0 60 68" fill="none" xmlns="http://www.w3.org/2000/svg">
<path d="M59.0037 16.5158C59.6204 16.8736 60 17.5327 60 18.2457V25.25L54 26.75V21.1546C54 20.4401 53.6227 19.7799 53.0103 19.4226L30.9897 6.57728C30.3773 6.22002 29.6227 6.22002 29.0103 6.57728L6.98975 19.4226C6.37729 19.7799 6 20.4401 6 21.1546V46.8452C6 47.5598 6.37729 48.22 6.98975 48.5773L29.0103 61.4226C29.6227 61.7798 30.3773 61.7798 30.9897 61.4226L53.0103 48.5773C53.6227 48.22 54 47.5598 54 46.8452V41.25L60 42.75V49.7542C60 50.4672 59.6204 51.1263 59.0037 51.4841L31.0037 67.7299C30.383 68.09 29.617 68.09 28.9963 67.7299L0.996307 51.4841C0.379578 51.1263 0 50.4672 0 49.7542V18.2457C0 17.5327 0.379578 16.8736 0.996307 16.5158L28.9963 0.270086C29.617 -0.0900288 30.383 -0.0900288 31.0037 0.270086L59.0037 16.5158Z" fill="#2D4D42"></path>
<path d="M48 39.75V44.1687C48 44.5281 47.8071 44.8598 47.4948 45.0377L30.4948 54.7182C30.1881 54.8929 29.8119 54.8929 29.5052 54.7182L12.5052 45.0377C12.1929 44.8598 12 44.5281 12 44.1687V23.8313C12 23.4719 12.1928 23.1402 12.5052 22.9623L29.5052 13.2818C29.8119 13.1071 30.1881 13.1071 30.4948 13.2818L47.4948 22.9623C47.8071 23.1402 48 23.4719 48 23.8313V28.25L42 29.75V26.8172C42 26.4654 41.9019 26.1395 41.6 25.9589L30.5132 19.3069C30.1972 19.1179 29.8028 19.1179 29.4868 19.3069L18.4 25.9589C18.0981 26.1395 18 26.4654 18 26.8172V41.1828C18 41.5346 18.0981 41.8605 18.4 42.0411L29.4868 48.6931C29.8028 48.8821 30.1972 48.8821 30.5132 48.6931L41.6 42.0411C41.9019 41.8605 42 41.5346 42 41.1828V38.25L48 39.75Z" fill="#2D4D42"></path>
</svg><style>@media (prefers-color-scheme: light) { :root { filter: none; } }
@media (prefers-color-scheme: dark) { :root { filter: contrast(0.3846153846153846) brightness(4.5); } }
</style></svg>