<?xml version="1.0" standalone="no"?>
<!DOCTYPE svg PUBLIC "-//W3C//DTD SVG 20010904//EN"
 "http://www.w3.org/TR/2001/REC-SVG-20010904/DTD/svg10.dtd">
<svg version="1.0" xmlns="http://www.w3.org/2000/svg"
 width="724.000000pt" height="724.000000pt" viewBox="0 0 724.000000 724.000000"
 preserveAspectRatio="xMidYMid meet">
<metadata>
Created by potrace 1.14, written by Peter Selinger 2001-2017
</metadata>
<g transform="translate(0.000000,724.000000) scale(0.100000,-0.100000)"
fill="#000000" stroke="none">
<path d="M2103 6502 c-537 -2 -573 -3 -573 -20 -1 -9 -2 -388 -3 -841 l-2
-825 -295 -1 -295 -1 -52 -26 c-113 -58 -162 -147 -165 -299 0 -26 3 -52 7
-59 6 -9 4 -11 -5 -5 -8 5 -11 4 -7 -2 6 -10 8 -56 6 -144 -1 -31 1 -62 5 -67
3 -6 2 -13 -3 -17 -6 -3 -7 -16 -3 -28 4 -12 6 -35 5 -52 -6 -63 -5 -133 1
-143 3 -6 2 -13 -3 -17 -6 -3 -7 -15 -2 -27 4 -12 5 -38 1 -59 -4 -20 -3 -44
2 -52 5 -9 4 -18 -1 -22 -6 -3 -7 -15 -2 -27 4 -12 5 -38 1 -59 -4 -20 -3 -44
2 -52 5 -9 4 -18 -1 -22 -6 -3 -7 -15 -2 -27 4 -12 5 -38 1 -59 -4 -20 -3 -44
2 -52 5 -9 4 -18 -1 -22 -7 -3 -7 -15 -1 -29 5 -13 6 -26 3 -29 -3 -4 -5 -46
-4 -94 1 -48 2 -94 2 -100 0 -7 -1 -37 -2 -67 -1 -30 1 -59 5 -64 3 -6 2 -13
-3 -17 -6 -3 -7 -16 -3 -28 4 -12 6 -35 5 -52 -2 -16 -3 -113 -2 -215 0 -102
0 -191 0 -197 0 -7 -1 -37 -2 -67 -1 -30 1 -59 5 -64 3 -6 2 -13 -3 -17 -6 -3
-7 -16 -3 -28 4 -12 6 -35 5 -52 -6 -63 -5 -294 1 -304 4 -5 2 -12 -3 -16 -6
-3 -7 -15 -2 -27 4 -12 5 -38 1 -59 -4 -20 -3 -44 2 -52 5 -9 4 -18 -1 -22 -6
-3 -7 -15 -2 -27 4 -12 5 -38 1 -59 -4 -20 -3 -44 2 -52 5 -9 4 -18 -1 -22 -6
-3 -7 -15 -2 -27 4 -12 5 -38 1 -59 -4 -20 -3 -44 2 -52 5 -9 4 -18 -1 -22 -6
-3 -7 -16 -3 -28 4 -12 6 -35 5 -52 -6 -63 -5 -133 1 -143 3 -6 2 -13 -3 -17
-6 -3 -7 -16 -3 -28 4 -12 6 -35 5 -52 -6 -67 -5 -183 1 -230 8 -58 54 -144
92 -171 14 -10 32 -24 39 -31 24 -23 112 -40 211 -41 55 0 105 -2 110 -3 5 -1
11 -1 14 0 14 5 200 5 200 1 0 -3 24 -4 52 -2 29 1 73 2 98 2 25 1 72 1 105 1
33 0 97 1 143 2 45 1 82 0 82 -3 0 -3 24 -4 52 -2 29 1 73 2 98 2 25 1 72 1
105 1 33 0 97 1 143 2 45 1 82 0 82 -3 0 -3 24 -4 52 -2 29 1 73 2 98 2 25 1
72 1 105 1 33 0 97 1 143 2 45 1 82 0 82 -3 0 -3 24 -4 52 -2 29 1 73 2 98 2
25 1 72 1 105 1 33 0 97 1 143 2 45 1 82 0 82 -3 0 -3 24 -4 52 -2 29 1 73 2
98 2 25 1 72 1 105 1 33 0 97 1 143 2 45 1 82 -1 82 -5 0 -3 12 -3 28 1 15 4
41 4 59 0 18 -3 35 -4 38 -1 4 5 117 6 141 1 5 -1 14 0 19 1 12 2 128 2 141
-1 5 -1 14 0 19 1 12 2 128 2 141 -1 5 -1 11 -1 14 0 3 1 43 3 90 4 66 2 96 8
130 26 80 41 133 105 155 186 5 17 9 147 9 290 1 143 4 265 8 270 4 7 287 10
852 10 l846 0 1 25 c5 155 0 3826 -5 3855 -21 113 -109 212 -221 250 -42 14
-94 17 -337 18 l-288 1 -2 270 c-1 149 -2 278 -3 286 -2 33 -55 127 -89 161
-69 70 -111 82 -286 86 -208 5 -2431 9 -3147 5z m3255 -241 c41 -22 44 -38 41
-216 0 -11 1 -83 1 -160 1 -77 1 -144 0 -150 -1 -5 -2 -17 -1 -26 2 -14 -127
-16 -1386 -16 -1063 0 -1399 -3 -1433 -13 -115 -31 -209 -129 -236 -245 -3
-16 -7 -162 -7 -322 -1 -161 -4 -293 -7 -294 -3 -1 -130 -2 -283 -3 -176 0
-281 3 -286 9 -4 6 -7 332 -7 725 l1 714 23 6 c13 3 819 4 1791 4 1304 -1
1773 -5 1789 -13z m41 -859 c0 -9 0 -154 0 -322 0 -168 0 -314 0 -325 0 -11 0
-155 0 -320 0 -165 0 -309 0 -320 0 -11 0 -155 0 -320 0 -165 0 -309 0 -320 0
-11 0 -155 0 -320 0 -165 0 -307 0 -315 0 -8 1 -28 2 -45 4 -83 -2 -115 -24
-141 l-24 -27 -274 -1 c-151 -1 -281 0 -289 2 -13 3 -15 130 -15 1093 0 722
-3 1089 -10 1090 -5 1 -491 2 -1080 3 l-1070 2 -3 284 c-2 281 -2 285 19 303
20 16 99 17 1395 17 1296 0 1373 -1 1373 -18z m791 -2 c19 -19 19 -46 19
-1800 l0 -1780 -97 -1 c-420 -2 -1327 3 -1331 7 -3 3 -6 133 -6 289 l0 283
285 0 c306 0 329 2 393 32 76 36 151 124 163 193 1 4 3 10 4 15 1 4 3 12 5 17
1 6 3 630 3 1388 l2 1377 270 0 c255 0 271 -1 290 -20z m-4669 -769 c4 -1 7
-445 7 -988 1 -628 5 -1000 11 -1021 33 -109 126 -194 237 -217 16 -3 148 -6
294 -7 l265 0 0 -272 c-1 -278 5 -340 40 -406 30 -58 107 -126 171 -150 l59
-23 993 -1 992 -1 1 -30 c4 -134 1 -467 -5 -495 -4 -21 -17 -43 -34 -55 -27
-20 -44 -20 -1792 -21 -1449 -1 -1771 1 -1798 12 -21 9 -37 25 -46 46 -20 48
-20 3540 -1 3578 14 26 45 47 79 52 16 2 508 1 527 -1z m799 0 c13 -1 15 -119
15 -1001 0 -883 -2 -1000 -15 -1001 -88 -5 -491 -2 -510 3 -57 18 -54 -29 -55
1021 0 736 3 970 12 975 9 5 470 7 553 3z m2265 0 c11 -1 13 -1986 1 -1998 -3
-4 -449 -7 -991 -7 l-985 -1 -2 994 c-2 697 0 998 8 1005 7 8 303 11 985 10
536 -1 979 -2 984 -3z m6 -2250 c4 -67 1 -553 -4 -557 -3 -3 -440 -5 -972 -5
-895 0 -969 2 -986 17 -18 16 -19 36 -19 290 l0 272 990 0 c909 0 990 -2 991
-17z"/>
</g>
</svg>
