<?xml version="1.0" standalone="no"?>
<!DOCTYPE svg PUBLIC "-//W3C//DTD SVG 20010904//EN"
 "http://www.w3.org/TR/2001/REC-SVG-20010904/DTD/svg10.dtd">
<svg version="1.0" xmlns="http://www.w3.org/2000/svg"
 width="700.000000pt" height="700.000000pt" viewBox="0 0 700.000000 700.000000"
 preserveAspectRatio="xMidYMid meet">
<metadata>
Created by potrace 1.14, written by Peter Selinger 2001-2017
</metadata>
<g transform="translate(0.000000,700.000000) scale(0.100000,-0.100000)"
fill="#000000" stroke="none">
<path d="M3420 6695 c-184 -69 -934 -280 -1100 -309 -14 -2 -55 -11 -91 -20
-37 -8 -78 -17 -90 -20 -13 -3 -34 -7 -45 -10 -12 -2 -37 -7 -55 -10 -19 -3
-66 -12 -105 -20 -69 -15 -392 -71 -466 -81 -21 -3 -55 -7 -75 -10 -21 -3 -49
-7 -63 -10 -14 -2 -47 -7 -75 -10 -27 -3 -63 -8 -80 -10 -16 -2 -57 -6 -90
-10 -103 -11 -94 9 -92 -207 l2 -191 25 -8 c14 -4 84 -24 155 -45 286 -82 403
-170 465 -349 11 -31 23 -78 26 -104 3 -25 8 -55 10 -66 2 -11 7 -67 11 -125
10 -139 10 -3623 0 -3765 -19 -286 -86 -439 -226 -522 -86 -52 -266 -101 -427
-118 -34 -3 -84 -9 -110 -13 l-49 -7 0 -220 0 -220 1810 -2 c1028 -1 1812 2
1815 7 6 10 5 428 -1 434 -2 3 -49 7 -103 11 -172 11 -404 40 -491 61 -256 63
-370 185 -400 429 -3 28 -8 66 -11 85 -4 19 -8 755 -9 1635 l-3 1600 55 115
c210 438 475 588 843 478 133 -40 263 -114 356 -204 144 -139 290 -166 468
-87 324 144 562 419 654 758 39 140 50 361 25 480 -32 152 -113 310 -215 416
-63 65 -145 134 -179 149 -13 6 -38 19 -55 29 -34 20 -157 67 -202 76 -15 3
-40 9 -57 13 -64 13 -278 6 -350 -12 -239 -62 -464 -219 -699 -491 -185 -213
-377 -510 -580 -895 -30 -58 -61 -105 -68 -105 -11 0 -13 139 -14 753 -1 414
-3 754 -5 756 -2 2 -20 -2 -39 -9z"/>
</g>
</svg>
