<svg width="207" height="25" viewBox="0 0 207 25" fill="none" xmlns="http://www.w3.org/2000/svg">
<path d="M0.998502 13V2.2H3.8865L7.6705 11.224H7.6545L11.4385 2.2H14.3265V13H12.5745V3.416H12.5505L8.7345 12.408H6.5985L2.7745 3.416H2.7505V13H0.998502ZM18.6474 13L23.4634 2.176H25.9194L30.7194 13H28.8714L27.5994 10.032H21.7834L20.5034 13H18.6474ZM22.1754 8.872H27.2074L24.7034 3.16H24.6874L22.1754 8.872ZM34.7123 13V2.2H40.2963C41.8963 2.2 43.1043 2.60267 43.9203 3.408C44.7363 4.208 45.1443 5.60267 45.1443 7.592C45.1443 9.58133 44.7363 10.9813 43.9203 11.792C43.1043 12.5973 41.8963 13 40.2963 13H34.7123ZM36.4883 11.8H39.8483C41.0003 11.8 41.8723 11.5173 42.4643 10.952C43.0616 10.3867 43.3603 9.26667 43.3603 7.592C43.3603 5.92267 43.0616 4.808 42.4643 4.248C41.8723 3.68267 41.0003 3.4 39.8483 3.4H36.4883V11.8ZM49.4281 13V2.2H58.5481V3.4H51.1961V6.912H58.0921V8.048H51.1961V11.8H58.5481V13H49.4281ZM71.3288 13V2.2H73.0968V13H71.3288ZM78.4054 13V2.2H81.3174L88.2934 12.296H87.9734L87.9814 2.2H89.7494V13H86.8774L79.9014 2.896H80.1734V13H78.4054ZM107.398 13.064C105.568 13.064 104.214 12.6027 103.334 11.68C102.459 10.7573 102.022 9.38933 102.022 7.576C102.022 5.76267 102.467 4.4 103.358 3.488C104.254 2.57067 105.638 2.112 107.51 2.112C109.27 2.112 110.576 2.51467 111.43 3.32C112.288 4.12 112.734 5.08267 112.766 6.208H110.982C110.944 5.328 110.648 4.62667 110.094 4.104C109.539 3.576 108.68 3.312 107.518 3.312C106.307 3.312 105.387 3.632 104.758 4.272C104.128 4.912 103.814 6.024 103.814 7.608C103.814 9.11733 104.128 10.2053 104.758 10.872C105.392 11.5333 106.312 11.864 107.518 11.864C108.67 11.864 109.515 11.6347 110.054 11.176C110.598 10.7173 110.883 10.0507 110.91 9.176L110.974 8.736H107.758V7.704H112.766V13H111.694L111.518 10.904C111.032 12.344 109.659 13.064 107.398 13.064ZM117.554 13V2.2H126.674V3.4H119.322V6.912H126.218V8.048H119.322V11.8H126.674V13H117.554ZM131.208 13V2.2H137.784C138.963 2.2 139.803 2.488 140.304 3.064C140.811 3.64 141.064 4.39467 141.064 5.328C141.064 6.26133 140.803 7.01333 140.28 7.584C139.763 8.14933 138.899 8.432 137.688 8.432H132.984V13H131.208ZM139.2 13L136.336 7.88L138.128 7.816L141.16 13H139.2ZM132.984 7.32H137.248C137.995 7.32 138.52 7.14667 138.824 6.8C139.133 6.448 139.288 5.968 139.288 5.36C139.288 4.752 139.133 4.27467 138.824 3.928C138.52 3.576 137.995 3.4 137.248 3.4H132.984V7.32ZM145.455 13V2.2H148.343L152.127 11.224H152.111L155.895 2.2H158.783V13H157.031V3.416H157.007L153.191 12.408H151.055L147.231 3.416H147.207V13H145.455ZM163.104 13L167.92 2.176H170.376L175.176 13H173.328L172.056 10.032H166.24L164.96 13H163.104ZM166.632 8.872H171.664L169.16 3.16H169.144L166.632 8.872ZM179.169 13V2.2H182.081L189.057 12.296H188.737L188.745 2.2H190.513V13H187.641L180.665 2.896H180.937V13H179.169ZM199.64 8.64L194.64 2.2H196.616L200.56 7.304H200.368L204.296 2.2H206.272L201.288 8.64H199.64ZM199.576 13V7.728H201.344V13H199.576Z" fill="black"/>
<rect x="8" y="21" width="56" height="4" fill="black"/>
<rect x="76" y="21" width="56" height="4" fill="#DD0B14"/>
<rect x="144" y="21" width="56" height="4" fill="#FFCE00"/>
</svg>
