<svg viewBox="0 0 40 40" fill="none" xmlns="http://www.w3.org/2000/svg">
  <path
    d="M30.1482 28.3461C28.2851 28.3461 26.4785 27.7251 25.0106 26.5959C23.5427 27.7251 21.7643 28.3461 19.873 28.3461C18.0381 28.3461 16.2879 27.7533 14.82 26.6524C13.3522 27.7533 11.602 28.3461 9.76711 28.3461C7.59351 28.3461 5.53282 27.5275 3.95201 26.0313L5.36344 24.5352C6.54905 25.6644 8.10162 26.2854 9.73889 26.2854C11.3479 26.2854 12.9005 25.6644 14.0861 24.5634L14.7918 23.9142L15.4975 24.5634C16.6831 25.6644 18.2357 26.2854 19.8447 26.2854C21.5102 26.2854 23.0628 25.6644 24.2484 24.507L24.9541 23.8295L25.6598 24.507C26.8454 25.6644 28.4263 26.2854 30.0635 26.2854C31.7008 26.2854 33.2816 25.6644 34.4672 24.507L35.9068 26.0031C34.3825 27.5275 32.3218 28.3461 30.1482 28.3461Z"
  />
  <path
    d="M30.1482 33.3426C28.2851 33.3426 26.4785 32.7215 25.0106 31.5924C23.5427 32.7215 21.7643 33.3426 19.873 33.3426C18.0381 33.3426 16.2879 32.7498 14.82 31.6488C13.3522 32.7498 11.602 33.3426 9.76711 33.3426C7.59351 33.3426 5.53282 32.5239 3.95201 31.0278L5.36344 29.5317C6.54905 30.6608 8.10162 31.2819 9.73889 31.2819C11.3479 31.2819 12.9005 30.6608 14.0861 29.5599L14.7918 28.9107L15.4975 29.5599C16.6831 30.6608 18.2357 31.2819 19.8447 31.2819C21.5102 31.2819 23.0628 30.6608 24.2484 29.5035L24.9541 28.826L25.6598 29.5035C26.8454 30.6608 28.4263 31.2819 30.0635 31.2819C31.7008 31.2819 33.2816 30.6608 34.4672 29.5035L35.9068 30.9996C34.3825 32.4957 32.3218 33.3426 30.1482 33.3426Z"
  />
  <path
    d="M26.9301 5.05745C24.6154 5.05745 22.6958 6.94876 22.6958 9.29174V12.9897H13.5215V9.29174C13.5215 8.10614 14.4813 7.11814 15.6951 7.11814C16.8807 7.11814 17.8687 8.07791 17.8687 9.29174H19.9294C19.9294 6.97699 18.0381 5.05745 15.6951 5.05745C13.3804 5.05745 11.4608 6.94876 11.4608 9.29174V22.8415H13.5215V20.1033H22.6958V22.8133H24.7565V9.26351C24.7565 8.07791 25.7163 7.08991 26.9301 7.08991C28.1157 7.08991 29.1037 8.04968 29.1037 9.26351H31.1644C31.1644 6.94877 29.2731 5.05745 26.9301 5.05745ZM13.5215 18.0144V15.0222H22.6958V18.0144H13.5215Z"
  />
</svg>
