<svg viewBox="0 0 40 40" fill="none" xmlns="http://www.w3.org/2000/svg">
  <path
    d="M26.3091 23.2886C25.3776 23.2886 24.6154 24.0508 24.6154 24.9824V31.2773C24.6154 32.1524 24.2484 32.9711 23.5992 33.5356C22.9499 34.1284 22.103 34.4107 21.2279 34.326C19.6754 34.1849 18.4615 32.7735 18.4615 31.1362V24.1355H19.3084C21.9337 24.1355 24.0508 22.0183 24.0508 19.3931V15.7516H25.7728V10.8963C25.7728 9.96471 25.0106 9.20254 24.079 9.20254H21.2844V3.98024H19.2237V9.23077H15.6951V3.98024H13.6344V9.23077H10.8398C9.90826 9.23077 9.14608 9.99294 9.14608 10.9245V15.7798H10.868V19.3931C10.868 22.0183 12.9852 24.1355 15.6104 24.1355H16.4008V31.0797C16.4008 33.7615 18.3204 36.0198 20.861 36.3303C21.0868 36.3585 21.3126 36.3867 21.5102 36.3867C22.7523 36.3867 23.9661 35.9351 24.8977 35.1164C25.9986 34.1284 26.6478 32.7452 26.6478 31.2773V25.6598C26.6478 25.4905 26.789 25.3493 26.9584 25.3493H28.8779V23.2886H26.3091ZM11.235 13.6909V11.602C11.235 11.4326 11.3761 11.2915 11.5455 11.2915H23.4298C23.5992 11.2915 23.7403 11.4326 23.7403 11.602V13.6909H18.4898V15.7516H22.0466V19.3649C22.0466 20.8327 20.8327 22.0466 19.3649 22.0466H15.6387C14.1708 22.0466 12.957 20.8327 12.957 19.3649V15.7516H16.4573V13.6909H11.235Z"
  />
</svg>
