<svg viewBox="0 0 40 40" fill="none" xmlns="http://www.w3.org/2000/svg">
  <path
    d="M14.3966 31.6069C10.0212 29.4897 7.00071 25.0014 7.00071 19.8355C7.00071 13.6252 11.3761 8.40294 17.2195 7.10442L18.6309 4.78967C10.9527 5.52362 4.94001 11.988 4.94001 19.8355C4.94001 26.1588 8.8638 31.6069 14.3966 33.8652V31.6069Z"
  />
  <path
    d="M25.18 5.58008V7.78191C29.8941 9.75792 33.1969 14.4156 33.1969 19.8355C33.1969 26.2999 28.4545 31.6916 22.2724 32.7078L20.9174 34.9379C28.9061 34.5144 35.2576 27.9089 35.2576 19.8355C35.2576 13.2865 31.0515 7.669 25.18 5.58008Z"
  />
  <path
    d="M12.9287 21.3317H18.3486L18.2639 31.8045L26.7043 18.2547H21.2562L21.2844 7.81014L12.9287 21.3317ZM16.3162 34.6838L16.4008 23.2794L10.8116 23.2512C10.2188 23.2512 9.8518 22.602 10.1623 22.0938L21.1715 4.33801C21.7643 3.37824 23.2604 3.80167 23.2604 4.93082L23.204 16.2787H28.8497C29.4425 16.2787 29.8095 16.928 29.4989 17.4361L18.4051 35.2484C17.8123 36.2646 16.3162 35.813 16.3162 34.6838Z"
  />
</svg>
