<svg viewBox="0 0 40 40" fill="none" xmlns="http://www.w3.org/2000/svg">
  <path
    d="M29.8941 21.115C29.753 19.6189 29.2449 17.6711 27.5229 14.8765C23.8532 8.92026 20.9457 4.46013 20.9174 4.40367C20.494 3.78264 19.5625 3.78264 19.1673 4.4319C19.1673 4.4319 16.4291 8.83557 12.6182 14.8483C10.5857 18.0946 10.1623 20.5787 10.1623 22.0748C10.1623 28.1157 15.5822 32.8864 21.7925 31.8137C26.9019 30.9386 30.3458 26.2809 29.8941 21.115ZM20.9739 29.753C18.7721 30.374 16.7678 28.7085 16.7678 26.5914C16.7678 26.168 16.8807 25.2364 17.7558 23.8814C18.6027 22.5547 19.3366 21.3691 19.9012 20.494C19.9859 20.3529 20.2117 20.3529 20.2964 20.494C20.861 21.3691 21.5949 22.5547 22.4418 23.9097C23.204 25.1235 23.3451 25.8574 23.3733 26.422C23.4016 27.9464 22.47 29.3578 20.9739 29.753ZM25.2646 27.8617C25.4058 27.2124 25.4622 26.5349 25.3776 25.8574C25.2929 25.0953 24.9824 24.1355 24.1637 22.8088C22.3571 19.9012 20.9457 17.6994 20.9174 17.6994C20.494 17.0783 19.5625 17.0783 19.1673 17.7276C19.1673 17.7276 17.8405 19.873 15.9774 22.8088C14.9047 24.5025 14.6789 25.801 14.6789 26.6196C14.6789 27.0713 14.7354 27.5229 14.8483 27.9464C13.2392 26.5067 12.1948 24.4178 12.1948 22.0748C12.1948 20.8327 12.5618 18.7721 14.3684 15.9492C16.7678 12.1666 18.7438 9.03317 19.873 7.19831C19.9577 7.05716 20.1835 7.05716 20.2682 7.19831C21.4255 9.03317 23.458 12.1948 25.7728 15.9492C26.9584 17.8687 27.4947 19.2802 27.7205 20.4093C28.2851 23.2604 27.2407 26.055 25.2646 27.8617Z"
  />
  <path d="M26.6196 34.0155H13.2675V36.0762H26.6196V34.0155Z" />
</svg>
