<svg viewBox="0 0 40 40" fill="none" xmlns="http://www.w3.org/2000/svg">
  <path
    d="M6.80311 33.8155V20.0964H8.8638V33.3639L31.1644 33.3357V20.0682H33.2251V33.7873C33.2251 34.6624 32.5194 35.3964 31.6161 35.3964L8.41214 35.4246C7.53705 35.4246 6.80311 34.6906 6.80311 33.8155Z"
  />
  <path
    d="M18.7721 30.3434H12.3077V24.1049H18.7721V30.3434ZM14.1426 28.5086H16.9372V25.9398H14.1426V28.5086Z"
  />
  <path
    d="M27.6076 30.3434H21.1433V24.1049H27.6076V30.3434ZM22.9781 28.5086H25.7728V25.9398H22.9781V28.5086Z"
  />
  <path
    d="M18.7721 22.2983H12.3077V16.0597H18.7721V22.2983ZM14.1426 20.4634H16.9372V17.8946H14.1426V20.4634Z"
  />
  <path
    d="M27.6076 22.2983H21.1433V16.0597H27.6076V22.2983ZM22.9781 20.4634H25.7728V17.8946H22.9781V20.4634Z"
  />
  <path
    d="M19.7318 5.95387C19.9859 5.72804 20.3529 5.72804 20.6069 5.95387L33.5639 17.2453C33.705 17.3865 33.7897 17.5558 33.7897 17.7534V20.04H35.9068V17.3018C35.9068 16.7654 35.681 16.2573 35.2858 15.9186L27.7205 9.34131V5.75627H25.6034V7.47821L21.3973 3.80849C20.7198 3.21569 19.7036 3.18746 18.9979 3.78026L4.68596 15.8904C4.26253 16.2291 4.0367 16.7654 4.0367 17.3018V20.0682H6.15385V17.7534C6.15385 17.5558 6.23853 17.3582 6.37968 17.2453L19.7318 5.95387Z"
  />
</svg>
