<svg viewBox="0 0 40 40" fill="none" xmlns="http://www.w3.org/2000/svg">
  <path d="M6.15385 9.39894H4.00847V15.7222H6.15385V9.39894Z" />
  <path d="M36.0198 9.39894H33.8744V15.7222H36.0198V9.39894Z" />
  <path d="M15.5258 25.3199H13.2675V27.5782H15.5258V25.3199Z" />
  <path d="M26.789 25.3199H24.5307V27.5782H26.789V25.3199Z" />
  <path
    d="M32.35 30.9092V5.8139C32.35 4.79767 31.5314 3.95081 30.4869 3.95081H9.59774C8.58151 3.95081 7.73465 4.76944 7.73465 5.8139V30.9374C7.73465 31.9536 8.55328 32.8005 9.59774 32.8005H11.4891V35.8492H13.6344V32.8005H26.4502V35.8492H28.5956V32.8005H30.4869C31.5032 32.7723 32.35 31.9536 32.35 30.9092ZM30.2047 30.2035C30.2047 30.4293 30.0071 30.6269 29.7812 30.6269H10.3035C10.0776 30.6269 9.88003 30.4293 9.88003 30.2035V22.3841H30.2047V30.2035ZM30.2047 20.2387H9.88003V6.51962C9.88003 6.29379 10.0776 6.09619 10.3035 6.09619H29.7812C30.0071 6.09619 30.2047 6.29379 30.2047 6.51962V20.2387Z"
  />
  <path d="M24.7283 7.93105H15.3282V10.0764H24.7283V7.93105Z" />
</svg>
